<svg width="500" height="500" viewBox="0 0 500 500" xmlns="http://www.w3.org/2000/svg">
  <style>
    @media (prefers-color-scheme: dark) {
      .brand-icon {
        filter: drop-shadow(-2px 0 0 rgba(0,229,255,0.5)) 
                drop-shadow(2px 0 0 rgba(255,0,85,0.5)) 
                drop-shadow(0 0 5px rgba(0,229,255,0.15));
      }
    }
  </style>
  <g class="brand-icon">
      <g fill="#000000">
        <circle cx="165" cy="180" r="40" />
        <circle cx="335" cy="180" r="40" />
        <path d="M 150 210 Q 250 150 350 210 C 410 240 430 350 440 420 Q 445 480 250 480 Q 55 480 60 420 C 70 350 90 240 150 210 Z" />
      </g>
      <path d="M 105 305 L 250 400 L 395 305 L 410 305 L 250 450 L 90 305 Z" fill="#FFFFFF" />
      <g>
        <circle cx="205" cy="245" r="16" fill="#FFFFFF" />
        <circle cx="205" cy="245" r="7" fill="#000000" />
        <circle cx="295" cy="245" r="16" fill="#FFFFFF" />
        <circle cx="295" cy="245" r="7" fill="#000000" />
      </g>
      <path d="M 220 280 Q 250 260 280 280 Q 295 310 280 330 Q 250 345 220 330 Q 205 310 220 280 Z" fill="#FFFFFF" />
      <path d="M 235 285 Q 250 280 265 285 Q 270 295 250 310 Q 230 295 235 285 Z" fill="#000000" />
      <rect x="248" y="310" width="4" height="10" rx="2" fill="#000000" />
  </g>
</svg>
